{"scene":0,"asset":{"generator":"ImageToStl.com","version":"2.0"},"scenes":[{"name":"Scene","nodes":[0]}],"nodes":[{"name":"Node0","children":[1,2,3,4,5,6,7]},{"name":"Node1","mesh":0},{"name":"Node2","mesh":1},{"name":"Node3","mesh":2},{"name":"Node4","mesh":3},{"name":"Node5","mesh":4},{"name":"Node6","mesh":5},{"name":"Node7","mesh":6}],"materials":[{"name":"01___Default","pbrMetallicRoughness":{"baseColorFactor":[0.0745,0.2157,0.1647,1.0],"metallicFactor":0.243,"roughnessFactor":0.983},"emissiveFactor":[0.0,0.0,0.0],"doubleSided":true},{"name":"02___Default","pbrMetallicRoughness":{"baseColorFactor":[0.3882,0.2745,0.2039,1.0],"metallicFactor":0.045,"roughnessFactor":0.975},"emissiveFactor":[0.0,0.0,0.0],"doubleSided":true}],"meshes":[{"name":"Mesh0","primitives":[{"indices":3,"material":0,"attributes":{"POSITION":0,"NORMAL":1,"TEXCOORD_0":2}}]},{"name":"Mesh0","primitives":[{"indices":7,"material":0,"attributes":{"POSITION":4,"NORMAL":5,"TEXCOORD_0":6}}]},{"name":"Mesh0","primitives":[{"indices":11,"material":0,"attributes":{"POSITION":8,"NORMAL":9,"TEXCOORD_0":10}}]},{"name":"Mesh0","primitives":[{"indices":15,"material":0,"attributes":{"POSITION":12,"NORMAL":13,"TEXCOORD_0":14}}]},{"name":"Mesh0","primitives":[{"indices":19,"material":0,"attributes":{"POSITION":16,"NORMAL":17,"TEXCOORD_0":18}}]},{"name":"Mesh0","primitives":[{"indices":23,"material":0,"attributes":{"POSITION":20,"NORMAL":21,"TEXCOORD_0":22}}]},{"name":"Mesh0","primitives":[{"indices":27,"material":1,"attributes":{"POSITION":24,"NORMAL":25,"TEXCOORD_0":26}}]}],"accessors":[{"bufferView":0,"componentType":5126,"count":127,"type":"VEC3","min":[-3.2937,21.4613,-3.014],"max":[3.2937,29.4595,3.3001]},{"bufferView":1,"componentType":5126,"count":127,"type":"VEC3"},{"bufferView":2,"componentType":5126,"count":127,"type":"VEC2"},{"bufferView":3,"componentType":5123,"count":2592,"type":"SCALAR"},{"bufferView":4,"componentType":5126,"count":127,"type":"VEC3","min":[-6.784,13.7291,-6.8701],"max":[6.784,24.0306,6.468]},{"bufferView":5,"componentType":5126,"count":127,"type":"VEC3"},{"bufferView":6,"componentType":5126,"count":127,"type":"VEC2"},{"bufferView":7,"componentType":5123,"count":2592,"type":"SCALAR"},{"bufferView":8,"componentType":5126,"count":127,"type":"VEC3","min":[-7.9083,9.3916,-8.346],"max":[8.6591,19.6873,8.346]},{"bufferView":9,"componentType":5126,"count":127,"type":"VEC3"},{"bufferView":10,"componentType":5126,"count":127,"type":"VEC2"},{"bufferView":11,"componentType":5123,"count":2592,"type":"SCALAR"},{"bufferView":12,"componentType":5126,"count":127,"type":"VEC3","min":[-10.2995,6.138,-9.7172],"max":[10.2995,17.7934,10.3403]},{"bufferView":13,"componentType":5126,"count":127,"type":"VEC3"},{"bufferView":14,"componentType":5126,"count":127,"type":"VEC2"},{"bufferView":15,"componentType":5123,"count":2592,"type":"SCALAR"},{"bufferView":16,"componentType":5126,"count":127,"type":"VEC3","min":[-12.3855,2.0899,-11.5966],"max":[11.6603,13.3505,11.5966]},{"bufferView":17,"componentType":5126,"count":127,"type":"VEC3"},{"bufferView":18,"componentType":5126,"count":127,"type":"VEC2"},{"bufferView":19,"componentType":5123,"count":2592,"type":"SCALAR"},{"bufferView":20,"componentType":5126,"count":127,"type":"VEC3","min":[-5.3396,18.074,-5.1455],"max":[5.0179,25.8037,5.1455]},{"bufferView":21,"componentType":5126,"count":127,"type":"VEC3"},{"bufferView":22,"componentType":5126,"count":127,"type":"VEC2"},{"bufferView":23,"componentType":5123,"count":2592,"type":"SCALAR"},{"bufferView":24,"componentType":5126,"count":117,"type":"VEC3","min":[-2.0,0.0,-1.9696],"max":[2.0,10.0,1.9696]},{"bufferView":25,"componentType":5126,"count":117,"type":"VEC3"},{"bufferView":26,"componentType":5126,"count":117,"type":"VEC2"},{"bufferView":27,"componentType":5123,"count":1944,"type":"SCALAR"}],"bufferViews":[{"target":34962,"buffer":0,"byteLength":1524,"byteOffset":0},{"target":34962,"buffer":0,"byteLength":1524,"byteOffset":1524},{"target":34962,"buffer":0,"byteLength":1016,"byteOffset":3048},{"target":34963,"buffer":0,"byteLength":5184,"byteOffset":4064},{"target":34962,"buffer":0,"byteLength":1524,"byteOffset":9248},{"target":34962,"buffer":0,"byteLength":1524,"byteOffset":10772},{"target":34962,"buffer":0,"byteLength":1016,"byteOffset":12296},{"target":34963,"buffer":0,"byteLength":5184,"byteOffset":13312},{"target":34962,"buffer":0,"byteLength":1524,"byteOffset":18496},{"target":34962,"buffer":0,"byteLength":1524,"byteOffset":20020},{"target":34962,"buffer":0,"byteLength":1016,"byteOffset":21544},{"target":34963,"buffer":0,"byteLength":5184,"byteOffset":22560},{"target":34962,"buffer":0,"byteLength":1524,"byteOffset":27744},{"target":34962,"buffer":0,"byteLength":1524,"byteOffset":29268},{"target":34962,"buffer":0,"byteLength":1016,"byteOffset":30792},{"target":34963,"buffer":0,"byteLength":5184,"byteOffset":31808},{"target":34962,"buffer":0,"byteLength":1524,"byteOffset":36992},{"target":34962,"buffer":0,"byteLength":1524,"byteOffset":38516},{"target":34962,"buffer":0,"byteLength":1016,"byteOffset":40040},{"target":34963,"buffer":0,"byteLength":5184,"byteOffset":41056},{"target":34962,"buffer":0,"byteLength":1524,"byteOffset":46240},{"target":34962,"buffer":0,"byteLength":1524,"byteOffset":47764},{"target":34962,"buffer":0,"byteLength":1016,"byteOffset":49288},{"target":34963,"buffer":0,"byteLength":5184,"byteOffset":50304},{"target":34962,"buffer":0,"byteLength":1404,"byteOffset":55488},{"target":34962,"buffer":0,"byteLength":1404,"byteOffset":56892},{"target":34962,"buffer":0,"byteLength":936,"byteOffset":58296},{"target":34963,"buffer":0,"byteLength":3888,"byteOffset":59232}],"buffers":[{"byteLength":63120,"uri":"data:application/octet-stream;base64,"}]}